<svg width="96" height="96" viewBox="0 0 96 96" fill="none" xmlns="http://www.w3.org/2000/svg">
<path d="M76 12H59.28C57.6 7.36 53.2 4 48 4C42.8 4 38.4 7.36 36.72 12H20C15.6 12 12 15.6 12 20V76C12 80.4 15.6 84 20 84H76C80.4 84 84 80.4 84 76V20C84 15.6 80.4 12 76 12ZM48 12C50.2 12 52 13.8 52 16C52 18.2 50.2 20 48 20C45.8 20 44 18.2 44 16C44 13.8 45.8 12 48 12ZM37.16 65.16L26.8 54.8C25.24 53.24 25.24 50.72 26.8 49.16C28.36 47.6 30.88 47.6 32.44 49.16L40 56.68L63.52 33.16C65.08 31.6 67.6 31.6 69.16 33.16C70.72 34.72 70.72 37.24 69.16 38.8L42.8 65.16C41.28 66.72 38.72 66.72 37.16 65.16Z" fill="#283794"/>
</svg>
