<svg width="96" height="96" viewBox="0 0 96 96" fill="none" xmlns="http://www.w3.org/2000/svg">
<path d="M11.16 59.12L10.8 58.76C9.24 57.2 9.24 54.68 10.8 53.12L35.16 28.72C36.72 27.16 39.24 27.16 40.8 28.72L53.96 41.88L79.52 13.16C81.04 11.44 83.72 11.4 85.32 13C86.8 14.52 86.88 16.92 85.48 18.48L56.8 50.76C55.28 52.48 52.64 52.56 51 50.92L38 37.92L16.8 59.12C15.28 60.68 12.72 60.68 11.16 59.12ZM16.8 83.12L38 61.92L51 74.92C52.64 76.56 55.28 76.48 56.8 74.76L85.48 42.48C86.88 40.92 86.8 38.52 85.32 37C83.72 35.4 81.04 35.44 79.52 37.16L53.96 65.88L40.8 52.72C39.24 51.16 36.72 51.16 35.16 52.72L10.8 77.12C9.24 78.68 9.24 81.2 10.8 82.76L11.16 83.12C12.72 84.68 15.28 84.68 16.8 83.12Z" fill="#283794"/>
</svg>
