<svg width="96" height="96" viewBox="0 0 96 96" fill="none" xmlns="http://www.w3.org/2000/svg">
<path d="M84 48.88C84 26.92 66.96 12 48 12C29.24 12 12 26.6 12 49.12C9.6 50.48 8 53.04 8 56V64C8 68.4 11.6 72 16 72C18.2 72 20 70.2 20 68V48.76C20 33.44 31.8 20.04 47.12 19.6C62.96 19.12 76 31.84 76 47.6V76H48C45.8 76 44 77.8 44 80C44 82.2 45.8 84 48 84H76C80.4 84 84 80.4 84 76V71.12C86.36 69.88 88 67.44 88 64.56V55.36C88 52.56 86.36 50.12 84 48.88Z" fill="#283794"/>
<path d="M36 56C38.2091 56 40 54.2091 40 52C40 49.7909 38.2091 48 36 48C33.7909 48 32 49.7909 32 52C32 54.2091 33.7909 56 36 56Z" fill="#283794"/>
<path d="M60 56C62.2091 56 64 54.2091 64 52C64 49.7909 62.2091 48 60 48C57.7909 48 56 49.7909 56 52C56 54.2091 57.7909 56 60 56Z" fill="#283794"/>
<path d="M72 44.12C70.08 32.72 60.16 24 48.2 24C36.08 24 23.04 34.04 24.08 49.8C33.96 45.76 41.4 36.96 43.52 26.24C48.76 36.76 59.52 44 72 44.12Z" fill="#283794"/>
</svg>
